# xmcd CD database file
#
# Track frame offsets:
#	150
#	16675
#	32570
#	46005
#	63650
#	82617
#	99440
#	115380
#	131060
#	143105
#
# Disc length: 2142 seconds
#
# Revision: 0
# Processed by: cddbd v1.4PL0 Copyright (c) Steve Scherf et al.
# Submitted via: CDex 1.40Release
#
DISCID=75085c0a
DTITLE=Billy Joe Royal - Billy Joe Royal
DYEAR=1992
DGENRE=Country
TTITLE0=Are We There Yet
TTITLE1=She's Everything I Wanted You To Be
TTITLE2=Funny How Time Slips Away
TTITLE3=Just When I Needed You Most
TTITLE4=Familiar Pain
TTITLE5=I'm Okay (And Gettin' Better)
TTITLE6=Look Me Up On Your Way Down
TTITLE7=Talk It Over
TTITLE8=I'm Sorry
TTITLE9=When He Wants Her
EXTD=YEAR: 1992 ID3G: 2
EXTT0=
EXTT1=
EXTT2=
EXTT3=
EXTT4=
EXTT5=
EXTT6=
EXTT7=
EXTT8=
EXTT9=
PLAYORDER=
